# xmcd CD database file
#
# Track frame offsets:
#	150
#	19625
#	39225
#
# Disc length: 780 seconds
#
# Revision: 0
# Processed by: cddbd v1.5PL3 Copyright (c) Steve Scherf et al.
# Submitted via: CDex 1.51
#
DISCID=15030a03
DTITLE=The gardens - BELIEVE
DYEAR=1998
DGENRE=JPop
TTITLE0=BELIEVE
TTITLE1=BELIEVE (English)
TTITLE2=BELIEVE (Instrumental)
EXTD=YEAR: 1998
EXTT0=
EXTT1=
EXTT2=
PLAYORDER=
